<svg xmlns="http://www.w3.org/2000/svg" width="90" height="90" viewBox="0 0 90 90">
  <metadata><?xpacket begin="﻿" id="W5M0MpCehiHzreSzNTczkc9d"?>
<x:xmpmeta xmlns:x="adobe:ns:meta/" x:xmptk="Adobe XMP Core 5.6-c142 79.160924, 2017/07/13-01:06:39        ">
   <rdf:RDF xmlns:rdf="http://www.w3.org/1999/02/22-rdf-syntax-ns#">
      <rdf:Description rdf:about=""/>
   </rdf:RDF>
</x:xmpmeta>
                                                                                                    
                                                                                                    
                                                                                                    
                                                                                                    
                                                                                                    
                                                                                                    
                                                                                                    
                                                                                                    
                                                                                                    
                                                                                                    
                                                                                                    
                                                                                                    
                                                                                                    
                                                                                                    
                                                                                                    
                                                                                                    
                                                                                                    
                                                                                                    
                                                                                                    
                                                                                                    
                           
<?xpacket end="w"?></metadata>
<defs>
    <style>
      .cls-1 {
        fill: #3774b3;
      }

      .cls-2 {
        fill: #5094da;
        fill-rule: evenodd;
      }
    </style>
  </defs>
  <rect id="Rounded_Rectangle_2" data-name="Rounded Rectangle 2" class="cls-1" width="90" height="90" rx="2" ry="2"/>
  <path class="cls-2" d="M789.023,445.9c-0.645-.581-1.611-0.663-3.212-0.8a33.975,33.975,0,0,1-5.756-.9,1.054,1.054,0,0,1-.025.1l-1.265,2.9a1,1,0,0,1-1.314.52,1.036,1.036,0,0,1-.272-0.171,1,1,0,0,1-.248-1.143l1.2-2.754c-0.61-.2-1.256-0.438-1.917-0.7l-1.26,2.887a1,1,0,0,1-1.834-.8l1.255-2.876q-0.872-.406-1.789-0.891c-0.005.011-.005,0.022-0.01,0.033l-1.264,2.9a1,1,0,0,1-1.315.514,1.012,1.012,0,0,1-.269-0.174,1,1,0,0,1-.248-1.143l1.265-2.9a1.119,1.119,0,0,1,.131-0.187q-0.788-.465-1.6-0.992l-1.216,2.78a1,1,0,1,1-1.834-.8l1.265-2.9a1.1,1.1,0,0,1,.136-0.2c-0.525-.373-1.055-0.761-1.6-1.177l-1.218,2.788a1,1,0,0,1-1.317.517,1.148,1.148,0,0,1-.267-0.177,1.006,1.006,0,0,1-.248-1.144l1.265-2.9a1.028,1.028,0,0,1,.226-0.322c-0.748-.611-1.506-1.257-2.281-1.955-1.585-1.427-4.034-1.5-5.242-.158-1.712,1.9-.4,4.032.607,5.257-3.447,3.267-6.493,1.512-9.442-.182-2.1-1.215-4.281-2.467-5.925-.642-1.553,1.724-1.589,3.516-1.623,5.246-0.006.258-.011,0.521-0.02,0.782a48.115,48.115,0,0,1-1.088,6.07,8.576,8.576,0,0,0-1.1,6.419,6.475,6.475,0,0,0,1.819,3.141,7.312,7.312,0,0,0,3.112,1.7,16.458,16.458,0,0,0,4.254.361l0.044,0a11.715,11.715,0,0,0,5.355-1.223,7.165,7.165,0,0,1,3.935-.966c3.6-.188,4.75.33,6.181,0.988a15.14,15.14,0,0,0,6.968,1.586c7.508,0.175,13.705-1.5,17.425-5.629a10.9,10.9,0,0,0,2.666-8.3A3.311,3.311,0,0,0,789.023,445.9Zm-1.984,7.876a8.566,8.566,0,0,1-1.07,1.486c-3.152,3.5-8.71,5.135-15.89,4.97a12.388,12.388,0,0,1-6.179-1.406,13.382,13.382,0,0,0-7.122-1.168,10.041,10.041,0,0,0-4.757,1.188c-0.88.458-1.607,0.845-4.509,1a14.844,14.844,0,0,1-3.719-.3,5.015,5.015,0,0,1-2.273-1.253,4.849,4.849,0,0,1-1.225-2.165,5.828,5.828,0,0,1,.33-3.73c0.024,0.021.039,0.045,0.062,0.066a6.227,6.227,0,0,0,6.911.92c2.244-.939,3.819-0.125,5.644.814a9.97,9.97,0,0,0,3.96,1.376c3.226,0.213,7.369.575,9.64,0.849a5.95,5.95,0,0,0,3.907-1.3,4.274,4.274,0,0,1,1.913-.869,3.039,3.039,0,0,1,1.53.758,6.124,6.124,0,0,0,4.217,1.453A19.617,19.617,0,0,0,787.039,453.78Z" transform="translate(-719 -402)"/>
</svg>
