<svg xmlns="http://www.w3.org/2000/svg" width="90" height="90" viewBox="0 0 90 90">
  <defs>
    <style>
      .cls-1 {
        fill: #3774b3;
      }

      .cls-2 {
        fill: #5094da;
        fill-rule: evenodd;
      }
    </style>
  </defs>
  <rect id="Rounded_Rectangle_2" data-name="Rounded Rectangle 2" class="cls-1" width="90" height="90" rx="2" ry="2"/>
  <path class="cls-2" d="M763.982,533a16.769,16.769,0,0,0-6.161,1H757.7l-6.845,1.812a10.515,10.515,0,0,0-5.29,4c-2.388,4-6.285,10.375-6.285,10.375a1.094,1.094,0,0,0,.311,1.407l6.565,4.094a0.916,0.916,0,0,0,.5.125,0.9,0.9,0,0,0,.809-0.5l2.489-4V581a0.941,0.941,0,0,0,1,1h25.887a0.941,0.941,0,0,0,1-1v-0.188l-0.094-23.406v-6l2.583,4a0.979,0.979,0,0,0,.778.5,0.744,0.744,0,0,0,.5-0.093l6.6-4.125a0.924,0.924,0,0,0,.5-1.376s-3.9-6.406-6.285-10.406a10.811,10.811,0,0,0-5.29-4L770.267,534h-0.124A16.769,16.769,0,0,0,763.982,533Zm0,2a15.728,15.728,0,0,1,4.636.594c-0.521.98-1.781,2.406-4.636,2.406-2.882,0-4.154-1.457-4.667-2.406A15.805,15.805,0,0,1,763.982,535Z" transform="translate(-719 -512)"/>
</svg>
