<svg xmlns="http://www.w3.org/2000/svg" xmlns:xlink="http://www.w3.org/1999/xlink" width="187.5" height="39" viewBox="0 0 187.5 39">
  <metadata><?xpacket begin="﻿" id="W5M0MpCehiHzreSzNTczkc9d"?>
<x:xmpmeta xmlns:x="adobe:ns:meta/" x:xmptk="Adobe XMP Core 5.6-c138 79.159824, 2016/09/14-01:09:01        ">
   <rdf:RDF xmlns:rdf="http://www.w3.org/1999/02/22-rdf-syntax-ns#">
      <rdf:Description rdf:about=""/>
   </rdf:RDF>
</x:xmpmeta>
                                                                                                    
                                                                                                    
                                                                                                    
                                                                                                    
                                                                                                    
                                                                                                    
                                                                                                    
                                                                                                    
                                                                                                    
                                                                                                    
                                                                                                    
                                                                                                    
                                                                                                    
                                                                                                    
                                                                                                    
                                                                                                    
                                                                                                    
                                                                                                    
                                                                                                    
                                                                                                    
                           
<?xpacket end="w"?></metadata>
<defs>
    <style>
      .cls-1 {
        fill: #eef6ff;
        filter: url(#filter);
      }

      .cls-1, .cls-2 {
        stroke: #3976b5;
        stroke-linecap: round;
        stroke-linejoin: round;
        stroke-width: 1px;
      }

      .cls-1, .cls-2, .cls-3, .cls-4, .cls-5, .cls-6, .cls-7, .cls-8 {
        fill-rule: evenodd;
      }

      .cls-2, .cls-7 {
        fill: #fff262;
      }

      .cls-2 {
        filter: url(#filter-2);
      }

      .cls-3, .cls-4, .cls-5 {
        fill: #fff;
      }

      .cls-4 {
        opacity: 0.3;
        mix-blend-mode: overlay;
      }

      .cls-5 {
        filter: url(#filter-3);
      }

      .cls-6 {
        fill: #9accff;
      }

      .cls-8 {
        fill: #3774b3;
      }
    </style>
    <filter id="filter" x="759" y="336" width="71" height="27" filterUnits="userSpaceOnUse">
      <feOffset result="offset" dy="1" in="SourceAlpha"/>
      <feGaussianBlur result="blur" stdDeviation="1.732"/>
      <feFlood result="flood" flood-color="#1f242a" flood-opacity="0.35"/>
      <feComposite result="composite" operator="in" in2="blur"/>
      <feBlend result="blend" in="SourceGraphic"/>
    </filter>
    <filter id="filter-2" x="823" y="336" width="83" height="27" filterUnits="userSpaceOnUse">
      <feOffset result="offset" dy="1" in="SourceAlpha"/>
      <feGaussianBlur result="blur" stdDeviation="1.732"/>
      <feFlood result="flood" flood-color="#1f242a" flood-opacity="0.35"/>
      <feComposite result="composite" operator="in" in2="blur"/>
      <feBlend result="blend" in="SourceGraphic"/>
    </filter>
    <filter id="filter-3" x="718" y="330" width="38" height="38" filterUnits="userSpaceOnUse">
      <feOffset result="offset" dy="1" in="SourceAlpha"/>
      <feGaussianBlur result="blur" stdDeviation="1.732"/>
      <feFlood result="flood" flood-color="#1f242a" flood-opacity="0.35"/>
      <feComposite result="composite" operator="in" in2="blur"/>
      <feBlend result="blend" in="SourceGraphic"/>
    </filter>
  </defs>
  <g transform="translate(-718 -329)" style="fill: #eef6ff; filter: url(#filter)">
    <path id="YourStore_copy" data-name="YourStore copy" class="cls-1" d="M769.561,357.976H773.9v-8.04L781.469,338h-4.927l-4.785,8.064-4.7-8.064h-5.067l7.573,12.024v7.957Zm16.06-3.94a4.021,4.021,0,0,1-1.253-.9,3.93,3.93,0,0,1-.817-1.3,4.345,4.345,0,0,1-.281-1.565v-0.056a4.545,4.545,0,0,1,.267-1.565,3.834,3.834,0,0,1,.775-1.287,3.632,3.632,0,0,1,1.224-.873,4.033,4.033,0,0,1,1.647-.318,3.836,3.836,0,0,1,1.605.332,3.963,3.963,0,0,1,2.083,2.2,4.345,4.345,0,0,1,.281,1.565v0.055a4.541,4.541,0,0,1-.267,1.565,3.853,3.853,0,0,1-.774,1.288,3.633,3.633,0,0,1-1.225.872,4.013,4.013,0,0,1-1.647.319A3.811,3.811,0,0,1,785.621,354.036Zm4.827,3.351a8.142,8.142,0,0,0,2.59-1.662,7.654,7.654,0,0,0,1.717-2.451,7.335,7.335,0,0,0,.62-3v-0.056a7.341,7.341,0,0,0-.62-3,7.6,7.6,0,0,0-1.7-2.437,7.907,7.907,0,0,0-2.575-1.634,8.657,8.657,0,0,0-3.238-.6,8.557,8.557,0,0,0-3.265.61,8.157,8.157,0,0,0-2.59,1.661,7.643,7.643,0,0,0-1.717,2.452,7.335,7.335,0,0,0-.62,3v0.055a7.335,7.335,0,0,0,.62,3,7.586,7.586,0,0,0,1.7,2.438,7.918,7.918,0,0,0,2.576,1.634,8.648,8.648,0,0,0,3.237.595A8.56,8.56,0,0,0,790.448,357.387Zm14.5,0.359a4.88,4.88,0,0,0,1.182-.531,5.607,5.607,0,0,0,.971-0.767,9.228,9.228,0,0,0,.8-0.906v2.466h4.278v-15H807.9v8.073a3.167,3.167,0,0,1-.718,2.252,2.562,2.562,0,0,1-1.957.76,2.425,2.425,0,0,1-1.914-.76,3.3,3.3,0,0,1-.676-2.252v-8.073h-4.279v9.423a5.781,5.781,0,0,0,1.338,4.044,4.9,4.9,0,0,0,3.786,1.53A5.047,5.047,0,0,0,804.946,357.746Zm11.063,0.262h4.278V352.18a5.545,5.545,0,0,1,1.225-3.961,4.447,4.447,0,0,1,3.364-1.274H825.1v-4.4a4.37,4.37,0,0,0-3.04.831,6.182,6.182,0,0,0-1.774,2.437v-2.835h-4.278v15.034Z" style="stroke: inherit; filter: none; fill: inherit"/>
  </g>
  <use transform="translate(-718 -329)" xlink:href="#YourStore_copy" style="stroke: #3976b5; filter: none; fill: none"/>
  <g transform="translate(-718 -329)" style="fill: #fff262; filter: url(#filter-2)">
    <path id="path" class="cls-2" d="M838.187,357.539a6.712,6.712,0,0,0,2.27-1.163,5.294,5.294,0,0,0,1.482-1.883,5.921,5.921,0,0,0,.531-2.562v-0.056a5.324,5.324,0,0,0-.409-2.188,4.459,4.459,0,0,0-1.214-1.593,7.47,7.47,0,0,0-1.976-1.163,20.484,20.484,0,0,0-2.667-.872q-1.27-.333-2.1-0.582a6.256,6.256,0,0,1-1.312-.526,1.646,1.646,0,0,1-.664-0.623,1.725,1.725,0,0,1-.183-0.817v-0.056a1.467,1.467,0,0,1,.633-1.2,3.112,3.112,0,0,1,1.9-.484,6.721,6.721,0,0,1,2.534.512,14.352,14.352,0,0,1,2.59,1.4l2.252-3.213a11.6,11.6,0,0,0-3.336-1.828,11.948,11.948,0,0,0-3.983-.637,8.851,8.851,0,0,0-2.782.415,6.383,6.383,0,0,0-2.171,1.191,5.475,5.475,0,0,0-1.413,1.842,5.555,5.555,0,0,0-.5,2.4V343.9a5.537,5.537,0,0,0,.466,2.41,4.425,4.425,0,0,0,1.312,1.62,7.664,7.664,0,0,0,2.061,1.094,24.762,24.762,0,0,0,2.71.8q1.24,0.3,2.018.581a6.307,6.307,0,0,1,1.213.554,1.56,1.56,0,0,1,.593.6,1.661,1.661,0,0,1,.155.734v0.055a1.519,1.519,0,0,1-.746,1.343,3.828,3.828,0,0,1-2.1.485,7.517,7.517,0,0,1-3.111-.637,12.9,12.9,0,0,1-2.772-1.717l-2.562,3.019a11.743,11.743,0,0,0,3.941,2.34,13.236,13.236,0,0,0,4.42.762A10,10,0,0,0,838.187,357.539Zm14.586,0.139a6.689,6.689,0,0,0,1.492-.624v-3.379a4.231,4.231,0,0,1-2.111.554,1.248,1.248,0,0,1-1.379-1.445v-6.365h3.547v-3.6h-3.547v-3.826H846.5v3.826h-1.8v3.6h1.8v7.035a6.056,6.056,0,0,0,.324,2.146,3.509,3.509,0,0,0,.9,1.371,3.2,3.2,0,0,0,1.38.734,7.1,7.1,0,0,0,1.787.208A6.863,6.863,0,0,0,852.773,357.678Zm10.543-3.642a4.021,4.021,0,0,1-1.253-.9,3.911,3.911,0,0,1-.816-1.3,4.325,4.325,0,0,1-.282-1.565v-0.056a4.522,4.522,0,0,1,.268-1.565,3.816,3.816,0,0,1,.774-1.287,3.642,3.642,0,0,1,1.224-.873,4.033,4.033,0,0,1,1.647-.318,3.833,3.833,0,0,1,1.6.332,3.954,3.954,0,0,1,2.083,2.2,4.345,4.345,0,0,1,.281,1.565v0.055a4.541,4.541,0,0,1-.267,1.565,3.836,3.836,0,0,1-.774,1.288,3.633,3.633,0,0,1-1.225.872,4.01,4.01,0,0,1-1.647.319A3.814,3.814,0,0,1,863.316,354.036Zm4.828,3.351a8.153,8.153,0,0,0,2.59-1.662,7.67,7.67,0,0,0,1.717-2.451,7.35,7.35,0,0,0,.619-3v-0.056a7.357,7.357,0,0,0-.619-3,7.613,7.613,0,0,0-1.7-2.437,7.922,7.922,0,0,0-2.576-1.634,8.657,8.657,0,0,0-3.238-.6,8.557,8.557,0,0,0-3.265.61,8.157,8.157,0,0,0-2.59,1.661,7.643,7.643,0,0,0-1.717,2.452,7.334,7.334,0,0,0-.619,3v0.055a7.334,7.334,0,0,0,.619,3,7.586,7.586,0,0,0,1.7,2.438,7.918,7.918,0,0,0,2.576,1.634A9.082,9.082,0,0,0,868.144,357.387Zm8.022,0.621h4.279V352.18a5.54,5.54,0,0,1,1.225-3.961,4.446,4.446,0,0,1,3.364-1.274h0.225v-4.4a4.369,4.369,0,0,0-3.04.831,6.182,6.182,0,0,0-1.774,2.437v-2.8h-4.279v15Zm15.23-8.93a4.276,4.276,0,0,1,1.084-2.3,2.9,2.9,0,0,1,2.181-.859,2.829,2.829,0,0,1,2.168.873,4.064,4.064,0,0,1,1.013,2.285H891.4Zm7.263,8.184a7.573,7.573,0,0,0,2.59-2.036l-2.45-2.132a6.5,6.5,0,0,1-1.745,1.163,4.839,4.839,0,0,1-1.914.36,3.873,3.873,0,0,1-2.407-.734,3.531,3.531,0,0,1-1.281-2.174h10.5q0.029-.3.043-0.582c0.009-.184.014-0.36,0.014-0.526a10.5,10.5,0,0,0-.437-3.033,7.394,7.394,0,0,0-1.351-2.576,6.636,6.636,0,0,0-2.294-1.786,7.459,7.459,0,0,0-3.266-.665,7.346,7.346,0,0,0-3.026.61,7.21,7.21,0,0,0-2.351,1.661,7.6,7.6,0,0,0-1.534,2.465,8.187,8.187,0,0,0-.549,2.992v0.055a7.928,7.928,0,0,0,.591,3.116,7.2,7.2,0,0,0,4.153,4,8.727,8.727,0,0,0,3.139.554A8.149,8.149,0,0,0,898.659,357.262Z" style="stroke: inherit; filter: none; fill: inherit"/>
  </g>
  <use transform="translate(-718 -329)" xlink:href="#path" style="stroke: #3976b5; filter: none; fill: none"/>
  <g>
    <path id="Rounded_Rectangle_9" data-name="Rounded Rectangle 9" class="cls-3" d="M751.545,334.629A1.744,1.744,0,0,0,750,333.1l-11.146-1.207a1.754,1.754,0,0,0-1.428.5l-16.333,16.169a1.721,1.721,0,0,0,0,2.45l12.388,12.219a1.766,1.766,0,0,0,2.475,0l16.332-16.169a1.72,1.72,0,0,0,.5-1.417Zm-4.3,4.771a1.733,1.733,0,1,1,1.75-1.733A1.743,1.743,0,0,1,747.246,339.4Z" transform="translate(-718 -329)"/>
    <path id="Rounded_Rectangle_9_copy" data-name="Rounded Rectangle 9 copy" class="cls-4" d="M751.545,334.884a1.745,1.745,0,0,0-1.547-1.53l-11.146-1.207a1.754,1.754,0,0,0-1.428.5l-16.333,16.169a1.721,1.721,0,0,0,0,2.45l12.388,12.22a1.767,1.767,0,0,0,2.475,0l16.332-16.17a1.72,1.72,0,0,0,.5-1.417Zm-4.3,4.771a1.733,1.733,0,1,1,1.75-1.733A1.742,1.742,0,0,1,747.246,339.655Z" transform="translate(-718 -329)"/>
    <path id="Bg" class="cls-5" d="M751.545,334.629A1.744,1.744,0,0,0,750,333.1l-11.146-1.207a1.754,1.754,0,0,0-1.428.5l-16.333,16.169a1.721,1.721,0,0,0,0,2.45l12.388,12.219a1.766,1.766,0,0,0,2.475,0l16.332-16.169a1.72,1.72,0,0,0,.5-1.417Zm-4.3,4.771a1.733,1.733,0,1,1,1.75-1.733A1.743,1.743,0,0,1,747.246,339.4Z" transform="translate(-718 -329)"/>
    <path id="Rounded_Rectangle_7" data-name="Rounded Rectangle 7" class="cls-6" d="M751.545,334.629A1.744,1.744,0,0,0,750,333.1l-11.146-1.207a1.754,1.754,0,0,0-1.428.5l-0.864.836,14.892,1.636Z" transform="translate(-718 -329)"/>
    <path id="Rounded_Rectangle_6" data-name="Rounded Rectangle 6" class="cls-7" d="M732.974,362.718l-6.476-6.405,7,6.93a1.761,1.761,0,0,0,2.474,0L752.3,347.074a1.73,1.73,0,0,0,.5-1.415l-0.257-2.31Z" transform="translate(-718 -329)"/>
    <path id="Rounded_Rectangle_8" data-name="Rounded Rectangle 8" class="cls-8" d="M737.364,339.977a0.58,0.58,0,1,0-.822.814L741.9,346.1a0.589,0.589,0,0,0,.793-0.031,0.573,0.573,0,0,0,.029-0.783Zm1.652-1.629a0.589,0.589,0,0,0-.793.032,0.573,0.573,0,0,0-.029.783l7.25,7.166a0.587,0.587,0,0,0,.79-0.029,0.573,0.573,0,0,0,.032-0.785Zm-9.9,9.8a0.589,0.589,0,0,0-.793.032,0.571,0.571,0,0,0-.03.783l7.25,7.184a0.587,0.587,0,0,0,.791-0.029,0.574,0.574,0,0,0,.032-0.785Zm-1.652,1.647a0.587,0.587,0,0,0-.791.03,0.574,0.574,0,0,0-.032.785l7.25,7.166a0.589,0.589,0,0,0,.793-0.031,0.574,0.574,0,0,0,.03-0.783Zm12.78-2.055a0.593,0.593,0,0,0,.833-0.007,0.581,0.581,0,0,0,0-.825l-5.361-5.308a0.589,0.589,0,0,0-.793.031,0.574,0.574,0,0,0-.03.783Zm-6.184-4.493a0.587,0.587,0,0,0-.791.036,0.57,0.57,0,0,0-.025.782l7.246,7.181a0.585,0.585,0,0,0,.79-0.032,0.571,0.571,0,0,0,.03-0.783Zm-1.645,1.633a0.585,0.585,0,0,0-.791.031,0.572,0.572,0,0,0-.03.783L736.956,351a0.588,0.588,0,0,0,1.012-.241,0.578,0.578,0,0,0-.189-0.573Zm2.889,7.757a0.584,0.584,0,0,0,.79-0.031,0.57,0.57,0,0,0,.032-0.783l-5.361-5.308a0.591,0.591,0,0,0-.793.03,0.576,0.576,0,0,0-.03.785Z" transform="translate(-718 -329)"/>
    <path id="Border" class="cls-8" d="M755.371,335.935l-3.067.218-0.175-1.588a2.322,2.322,0,0,0-2.067-2.043l-1.485-.163L749,329.668a0.59,0.59,0,0,0-1.167-.171l-0.426,2.736-8.487-.918a2.349,2.349,0,0,0-1.907.663l-16.332,16.169a2.295,2.295,0,0,0,0,3.269l12.395,12.238a2.353,2.353,0,0,0,3.3,0l16.332-16.17a2.3,2.3,0,0,0,.672-1.888l-0.945-8.292,3.021-.214a0.6,0.6,0,0,0,.4-0.2,0.568,0.568,0,0,0,.141-0.421A0.577,0.577,0,0,0,755.371,335.935Zm-3.174,9.787a1.145,1.145,0,0,1-.33.941l-16.332,16.17a1.173,1.173,0,0,1-1.652,0l-12.361-12.265a1.146,1.146,0,0,1,0-1.633l16.332-16.17a1.171,1.171,0,0,1,.934-0.295l11.142,1.2a1.164,1.164,0,0,1,1.032,1.024l0.176,1.547-1.75.12a2.371,2.371,0,0,0-3.361-1.006,2.3,2.3,0,0,0-.971,2.741,2.337,2.337,0,0,0,4.523-.6l1.663-.115Zm-4-7.477a1.292,1.292,0,0,1-1.811,0,1.258,1.258,0,0,1,0-1.8,1.289,1.289,0,0,1,1.811,0A1.269,1.269,0,0,1,748.2,338.245Z" transform="translate(-718 -329)"/>
  </g>
</svg>
